<svg width="73" height="75" viewBox="0 0 73 75" fill="none" xmlns="http://www.w3.org/2000/svg">
<g id="Document">
<g id="Bg">
<path id="Path" d="M39.2542 20.9785L26.3855 24.4267C21.7178 25.6774 19.7323 29.1387 20.9872 33.8219L25.2372 49.6831C26.5126 54.4431 29.9462 56.3865 34.614 55.1358L47.4827 51.6877C52.2257 50.4168 54.1508 47.0374 52.8754 42.2775L48.6254 26.4163C47.3705 21.7331 43.9972 19.7077 39.2542 20.9785Z" fill="url(#paint0_linear_571_819)"/>
<g id="Rectangle 1034" filter="url(#filter0_f_571_819)">
<rect x="30.4482" y="49.6025" width="20.5291" height="17.3843" rx="8.69213" transform="rotate(-105 30.4482 49.6025)" fill="#8237FF" fill-opacity="0.5"/>
</g>
</g>
<g id="Icon">
<g id="Path_2" filter="url(#filter1_b_571_819)">
<path d="M51.3554 29.1863H38.0328C33.2003 29.1863 30.3867 32.0158 30.3867 36.8641V53.2849C30.3867 58.2127 33.2003 60.9787 38.0328 60.9787H51.3554C56.2657 60.9787 58.9999 58.2127 58.9999 53.2849V36.8641C58.9999 32.0158 56.2657 29.1863 51.3554 29.1863Z" fill="#BA90FF" fill-opacity="0.35"/>
<path d="M51.3554 28.6863H38.0328C35.5194 28.6863 33.4671 29.424 32.0432 30.8543C30.6197 32.2844 29.8867 34.344 29.8867 36.8641V53.2849C29.8867 55.8428 30.6186 57.9079 32.044 59.3333C33.4693 60.7586 35.5224 61.4787 38.0328 61.4787H51.3554C53.9029 61.4787 55.9573 60.7596 57.3739 59.3319C58.79 57.9048 59.4999 55.839 59.4999 53.2849V36.8641C59.4999 34.3478 58.7889 32.2874 57.3747 30.8557C55.9596 29.423 53.9059 28.6863 51.3554 28.6863Z" stroke="url(#paint1_linear_571_819)" stroke-linecap="round" stroke-linejoin="round"/>
</g>
<g id="Union" filter="url(#filter2_bd_571_819)">
<mask id="path-5-inside-1_571_819" fill="white">
<path fill-rule="evenodd" clip-rule="evenodd" d="M38.4619 36.5786V36.5945C37.7768 36.5945 37.222 37.1509 37.222 37.8344C37.222 38.5179 37.7768 39.0743 38.4619 39.0743H43.2133C43.8985 39.0743 44.4548 38.5179 44.4548 37.8169C44.4548 37.135 43.8985 36.5786 43.2133 36.5786H38.4619ZM50.9246 46.2597H38.4619C37.7768 46.2597 37.222 45.7033 37.222 45.0198C37.222 44.3362 37.7768 43.7783 38.4619 43.7783H50.9246C51.6081 43.7783 52.1645 44.3362 52.1645 45.0198C52.1645 45.7033 51.6081 46.2597 50.9246 46.2597ZM50.9247 53.5241H38.4621C37.9852 53.5877 37.5242 53.3493 37.2699 52.9519C37.0155 52.5386 37.0155 52.014 37.2699 51.6166C37.5242 51.2033 37.9852 50.9807 38.4621 51.0284H50.9247C51.559 51.092 52.0374 51.6325 52.0374 52.2842C52.0374 52.9185 51.559 53.4605 50.9247 53.5241Z"/>
</mask>
<path fill-rule="evenodd" clip-rule="evenodd" d="M38.4619 36.5786V36.5945C37.7768 36.5945 37.222 37.1509 37.222 37.8344C37.222 38.5179 37.7768 39.0743 38.4619 39.0743H43.2133C43.8985 39.0743 44.4548 38.5179 44.4548 37.8169C44.4548 37.135 43.8985 36.5786 43.2133 36.5786H38.4619ZM50.9246 46.2597H38.4619C37.7768 46.2597 37.222 45.7033 37.222 45.0198C37.222 44.3362 37.7768 43.7783 38.4619 43.7783H50.9246C51.6081 43.7783 52.1645 44.3362 52.1645 45.0198C52.1645 45.7033 51.6081 46.2597 50.9246 46.2597ZM50.9247 53.5241H38.4621C37.9852 53.5877 37.5242 53.3493 37.2699 52.9519C37.0155 52.5386 37.0155 52.014 37.2699 51.6166C37.5242 51.2033 37.9852 50.9807 38.4621 51.0284H50.9247C51.559 51.092 52.0374 51.6325 52.0374 52.2842C52.0374 52.9185 51.559 53.4605 50.9247 53.5241Z" fill="url(#paint2_linear_571_819)"/>
<path d="M38.4619 36.5945V36.9945H38.8619V36.5945H38.4619ZM38.4619 36.5786V36.1786H38.0619V36.5786H38.4619ZM38.4621 53.5241V53.1241H38.4355L38.4092 53.1276L38.4621 53.5241ZM50.9247 53.5241V53.9241H50.9447L50.9646 53.9221L50.9247 53.5241ZM37.2699 52.9519L36.9291 53.1615L36.9329 53.1675L37.2699 52.9519ZM37.2699 51.6166L37.6068 51.8322L37.6105 51.8262L37.2699 51.6166ZM38.4621 51.0284L38.4223 51.4264L38.4421 51.4284H38.4621V51.0284ZM50.9247 51.0284L50.9646 50.6304L50.9447 50.6284H50.9247V51.0284ZM38.8619 36.5945V36.5786H38.0619V36.5945H38.8619ZM37.622 37.8344C37.622 37.3715 37.9981 36.9945 38.4619 36.9945V36.1945C37.5556 36.1945 36.822 36.9303 36.822 37.8344H37.622ZM38.4619 38.6743C37.9981 38.6743 37.622 38.2974 37.622 37.8344H36.822C36.822 38.7385 37.5556 39.4743 38.4619 39.4743V38.6743ZM43.2133 38.6743H38.4619V39.4743H43.2133V38.6743ZM44.0548 37.8169C44.0548 38.3004 43.6742 38.6743 43.2133 38.6743V39.4743C44.1227 39.4743 44.8548 38.7355 44.8548 37.8169H44.0548ZM43.2133 36.9786C43.6782 36.9786 44.0548 37.3566 44.0548 37.8169H44.8548C44.8548 36.9134 44.1187 36.1786 43.2133 36.1786V36.9786ZM38.4619 36.9786H43.2133V36.1786H38.4619V36.9786ZM38.4619 46.6597H50.9246V45.8597H38.4619V46.6597ZM36.822 45.0198C36.822 45.9239 37.5556 46.6597 38.4619 46.6597V45.8597C37.9981 45.8597 37.622 45.4827 37.622 45.0198H36.822ZM38.4619 43.3783C37.5549 43.3783 36.822 44.1163 36.822 45.0198H37.622C37.622 44.5562 37.9987 44.1783 38.4619 44.1783V43.3783ZM50.9246 43.3783H38.4619V44.1783H50.9246V43.3783ZM52.5645 45.0198C52.5645 44.116 51.8297 43.3783 50.9246 43.3783V44.1783C51.3865 44.1783 51.7645 44.5565 51.7645 45.0198H52.5645ZM50.9246 46.6597C51.829 46.6597 52.5645 45.9242 52.5645 45.0198H51.7645C51.7645 45.4824 51.3872 45.8597 50.9246 45.8597V46.6597ZM38.4621 53.9241H50.9247V53.1241H38.4621V53.9241ZM36.9329 53.1675C37.2636 53.6842 37.8708 54.0065 38.5149 53.9206L38.4092 53.1276C38.0996 53.1689 37.7848 53.0144 37.6068 52.7362L36.9329 53.1675ZM36.9329 51.401C36.5929 51.9323 36.5973 52.6222 36.9292 53.1615L37.6105 52.7422C37.4337 52.4549 37.4381 52.0957 37.6068 51.8322L36.9329 51.401ZM38.5019 50.6304C37.8749 50.5677 37.2651 50.8611 36.9292 51.4069L37.6105 51.8262C37.7833 51.5454 38.0954 51.3938 38.4223 51.4264L38.5019 50.6304ZM50.9247 50.6284H38.4621V51.4284H50.9247V50.6284ZM52.4374 52.2842C52.4374 51.4346 51.8108 50.7152 50.9646 50.6304L50.8848 51.4264C51.3071 51.4688 51.6374 51.8303 51.6374 52.2842H52.4374ZM50.9646 53.9221C51.808 53.8376 52.4374 53.1192 52.4374 52.2842H51.6374C51.6374 52.7177 51.31 53.0835 50.8848 53.1261L50.9646 53.9221Z" fill="url(#paint3_linear_571_819)" mask="url(#path-5-inside-1_571_819)"/>
</g>
</g>
</g>
<defs>
<filter id="filter0_f_571_819" x="0.0859375" y="0.224915" width="72.2031" height="74.4263" filterUnits="userSpaceOnUse" color-interpolation-filters="sRGB">
<feFlood flood-opacity="0" result="BackgroundImageFix"/>
<feBlend mode="normal" in="SourceGraphic" in2="BackgroundImageFix" result="shape"/>
<feGaussianBlur stdDeviation="13.5" result="effect1_foregroundBlur_571_819"/>
</filter>
<filter id="filter1_b_571_819" x="5.38672" y="4.18628" width="78.6133" height="81.7924" filterUnits="userSpaceOnUse" color-interpolation-filters="sRGB">
<feFlood flood-opacity="0" result="BackgroundImageFix"/>
<feGaussianBlur in="BackgroundImageFix" stdDeviation="12"/>
<feComposite in2="SourceAlpha" operator="in" result="effect1_backgroundBlur_571_819"/>
<feBlend mode="normal" in="SourceGraphic" in2="effect1_backgroundBlur_571_819" result="shape"/>
</filter>
<filter id="filter2_bd_571_819" x="22.0791" y="21.5786" width="45.085" height="46.9557" filterUnits="userSpaceOnUse" color-interpolation-filters="sRGB">
<feFlood flood-opacity="0" result="BackgroundImageFix"/>
<feGaussianBlur in="BackgroundImageFix" stdDeviation="7.5"/>
<feComposite in2="SourceAlpha" operator="in" result="effect1_backgroundBlur_571_819"/>
<feColorMatrix in="SourceAlpha" type="matrix" values="0 0 0 0 0 0 0 0 0 0 0 0 0 0 0 0 0 0 127 0" result="hardAlpha"/>
<feOffset dx="5" dy="5"/>
<feGaussianBlur stdDeviation="5"/>
<feColorMatrix type="matrix" values="0 0 0 0 0.577356 0 0 0 0 0.359375 0 0 0 0 0.9375 0 0 0 0.5 0"/>
<feBlend mode="normal" in2="effect1_backgroundBlur_571_819" result="effect2_dropShadow_571_819"/>
<feBlend mode="normal" in="SourceGraphic" in2="effect2_dropShadow_571_819" result="shape"/>
</filter>
<linearGradient id="paint0_linear_571_819" x1="32.8191" y1="22.7028" x2="41.0476" y2="53.4119" gradientUnits="userSpaceOnUse">
<stop stop-color="#BC94FF"/>
<stop offset="1" stop-color="#9F66FF"/>
</linearGradient>
<linearGradient id="paint1_linear_571_819" x1="34.9415" y1="32.8901" x2="55.5658" y2="55.8795" gradientUnits="userSpaceOnUse">
<stop stop-color="white" stop-opacity="0.25"/>
<stop offset="1" stop-color="white" stop-opacity="0"/>
</linearGradient>
<linearGradient id="paint2_linear_571_819" x1="51.0949" y1="39.6405" x2="34.2875" y2="40.128" gradientUnits="userSpaceOnUse">
<stop stop-color="white"/>
<stop offset="1" stop-color="white" stop-opacity="0.2"/>
</linearGradient>
<linearGradient id="paint3_linear_571_819" x1="39.4804" y1="38.554" x2="50.4929" y2="50.6887" gradientUnits="userSpaceOnUse">
<stop stop-color="white" stop-opacity="0.25"/>
<stop offset="1" stop-color="white" stop-opacity="0"/>
</linearGradient>
</defs>
</svg>
